<?xml version="1.0" encoding="UTF-8"?>
<svg version="1.1" xmlns="http://www.w3.org/2000/svg" width="120" height="120">
<path d="M0 0 C1.23741943 0.00837891 2.47483887 0.01675781 3.74975586 0.02539062 C13.15751885 0.25858457 20.16835256 1.42638028 28.1875 6.625 C29.17363281 7.25148438 30.15976563 7.87796875 31.17578125 8.5234375 C44.68842836 17.77566948 55.1388938 30.51539591 59.1875 46.625 C59.65319564 51.39203612 59.61452468 56.09041328 59.5 60.875 C59.49033203 62.1021875 59.48066406 63.329375 59.47070312 64.59375 C59.35101392 74.21051774 59.35101392 74.21051774 58.60546875 78.734375 C58.00515761 81.51390748 58.00515761 81.51390748 58.76953125 83.71484375 C59.80842014 88.46266306 55.56932013 93.73986145 53.1875 97.625 C46.80783934 106.43056453 39.09297757 112.31187072 29.1875 116.625 C27.96268921 117.16785645 27.96268921 117.16785645 26.71313477 117.72167969 C18.22981211 121.03088631 10.25386046 121.17758952 1.28588867 121.03662109 C-1.13860725 120.99979331 -3.56157957 120.99560523 -5.98632812 120.99609375 C-7.54949223 120.98627014 -9.11264613 120.97461645 -10.67578125 120.9609375 C-11.38946365 120.95871185 -12.10314606 120.95648621 -12.8384552 120.95419312 C-26.3387398 120.70142251 -40.29149994 113.13965805 -49.82421875 103.86328125 C-52.64459502 100.68828006 -54.87432119 97.39637293 -56.8125 93.625 C-57.17085937 93.01398438 -57.52921875 92.40296875 -57.8984375 91.7734375 C-60.11420401 86.5654393 -59.62490494 80.22783899 -59.8125 74.625 C-59.85181641 73.59632812 -59.89113281 72.56765625 -59.93164062 71.5078125 C-60.70322729 48.85716669 -57.69182965 33.26354886 -42.0625 16.3125 C-30.0719362 5.03707917 -16.27054197 -0.15009114 0 0 Z " fill="#F7F6F8" transform="translate(60.8125,-0.625)"/>
<path d="M0 0 C1.23741943 0.00837891 2.47483887 0.01675781 3.74975586 0.02539062 C13.15751885 0.25858457 20.16835256 1.42638028 28.1875 6.625 C29.17363281 7.25148438 30.15976563 7.87796875 31.17578125 8.5234375 C44.68842836 17.77566948 55.1388938 30.51539591 59.1875 46.625 C59.65319564 51.39203612 59.61452468 56.09041328 59.5 60.875 C59.49033203 62.1021875 59.48066406 63.329375 59.47070312 64.59375 C59.35101392 74.21051774 59.35101392 74.21051774 58.60546875 78.734375 C58.00515761 81.51390748 58.00515761 81.51390748 58.76953125 83.71484375 C59.80842014 88.46266306 55.56932013 93.73986145 53.1875 97.625 C46.80783934 106.43056453 39.09297757 112.31187072 29.1875 116.625 C27.96268921 117.16785645 27.96268921 117.16785645 26.71313477 117.72167969 C18.22981211 121.03088631 10.25386046 121.17758952 1.28588867 121.03662109 C-1.13860725 120.99979331 -3.56157957 120.99560523 -5.98632812 120.99609375 C-7.54949223 120.98627014 -9.11264613 120.97461645 -10.67578125 120.9609375 C-11.38946365 120.95871185 -12.10314606 120.95648621 -12.8384552 120.95419312 C-26.3387398 120.70142251 -40.29149994 113.13965805 -49.82421875 103.86328125 C-52.64459502 100.68828006 -54.87432119 97.39637293 -56.8125 93.625 C-57.17085937 93.01398438 -57.52921875 92.40296875 -57.8984375 91.7734375 C-60.11420401 86.5654393 -59.62490494 80.22783899 -59.8125 74.625 C-59.85181641 73.59632812 -59.89113281 72.56765625 -59.93164062 71.5078125 C-60.70322729 48.85716669 -57.69182965 33.26354886 -42.0625 16.3125 C-30.0719362 5.03707917 -16.27054197 -0.15009114 0 0 Z M-15.8125 10.625 C-15.1525 10.955 -14.4925 11.285 -13.8125 11.625 C-13.1875 14.6875 -13.1875 14.6875 -12.8125 17.625 C-12.4825 17.625 -12.1525 17.625 -11.8125 17.625 C-11.8125 15.315 -11.8125 13.005 -11.8125 10.625 C-10.14583333 12.29166667 -8.47916667 13.95833333 -6.8125 15.625 C-6.8125 13.645 -6.8125 11.665 -6.8125 9.625 C-5.4925 9.955 -4.1725 10.285 -2.8125 10.625 C-2.8125 12.605 -2.8125 14.585 -2.8125 16.625 C-5.1225 16.625 -7.4325 16.625 -9.8125 16.625 C-9.8125 17.285 -9.8125 17.945 -9.8125 18.625 C-11.1325 18.625 -12.4525 18.625 -13.8125 18.625 C-14.3075 17.635 -14.3075 17.635 -14.8125 16.625 C-15.8025 16.955 -16.7925 17.285 -17.8125 17.625 C-17.8125 18.945 -17.8125 20.265 -17.8125 21.625 C-19.4625 21.625 -21.1125 21.625 -22.8125 21.625 C-22.8125 22.285 -22.8125 22.945 -22.8125 23.625 C-23.4725 23.625 -24.1325 23.625 -24.8125 23.625 C-24.8125 24.285 -24.8125 24.945 -24.8125 25.625 C-25.4725 25.625 -26.1325 25.625 -26.8125 25.625 C-27.121875 24.84125 -27.43125 24.0575 -27.75 23.25 C-28.74125038 20.70169872 -28.74125038 20.70169872 -29.8125 18.625 C-36.36878054 19.5891589 -40.82138712 25.97747628 -44.58984375 30.98828125 C-52.54444235 43.35535439 -55.37217064 58.37825313 -52.35253906 72.82568359 C-51.2449054 76.93851744 -49.88927833 80.89264909 -47.8125 84.625 C-46.8225 84.955 -45.8325 85.285 -44.8125 85.625 C-46.2975 78.695 -46.2975 78.695 -47.8125 71.625 C-45.1725 72.615 -42.5325 73.605 -39.8125 74.625 C-39.83344727 73.95033691 -39.85439453 73.27567383 -39.87597656 72.58056641 C-39.96004586 69.47053433 -40.01144444 66.36074241 -40.0625 63.25 C-40.09601562 62.18910156 -40.12953125 61.12820312 -40.1640625 60.03515625 C-40.29915627 49.02501372 -37.0341686 40.89381055 -29.8125 32.625 C-29.25014648 31.93164551 -28.68779297 31.23829102 -28.10839844 30.52392578 C-25.05926554 28.00200365 -23.42189669 28.23201528 -19.515625 28.453125 C-17.70771484 28.54013672 -17.70771484 28.54013672 -15.86328125 28.62890625 C-14.60902344 28.71011719 -13.35476562 28.79132812 -12.0625 28.875 C-10.79277344 28.94074219 -9.52304687 29.00648437 -8.21484375 29.07421875 C-5.07922731 29.23925119 -1.94595222 29.42353663 1.1875 29.625 C-0.46329442 31.27579442 -2.44986179 30.85049447 -4.72265625 30.94140625 C-5.71201172 30.98330078 -6.70136719 31.02519531 -7.72070312 31.06835938 C-8.76162109 31.10767578 -9.80253906 31.14699219 -10.875 31.1875 C-11.91978516 31.23068359 -12.96457031 31.27386719 -14.04101562 31.31835938 C-16.63136884 31.42481225 -19.22182186 31.5268276 -21.8125 31.625 C-21.8125 32.285 -21.8125 32.945 -21.8125 33.625 C-15.2125 33.625 -8.6125 33.625 -1.8125 33.625 C-2.1425 34.285 -2.4725 34.945 -2.8125 35.625 C-9.0825 35.955 -15.3525 36.285 -21.8125 36.625 C-21.8125 37.615 -21.8125 38.605 -21.8125 39.625 C-15.2125 39.625 -8.6125 39.625 -1.8125 39.625 C-1.8125 40.615 -1.8125 41.605 -1.8125 42.625 C-3.7925 42.625 -5.7725 42.625 -7.8125 42.625 C-8.1425 41.965 -8.4725 41.305 -8.8125 40.625 C-9.1425 40.955 -9.4725 41.285 -9.8125 41.625 C-11.82844582 41.85927778 -13.850974 42.03836124 -15.875 42.1875 C-16.97972656 42.27128906 -18.08445313 42.35507812 -19.22265625 42.44140625 C-20.50462891 42.53228516 -20.50462891 42.53228516 -21.8125 42.625 C-21.8125 43.285 -21.8125 43.945 -21.8125 44.625 C-17.8525 44.625 -13.8925 44.625 -9.8125 44.625 C-9.8125 45.615 -9.8125 46.605 -9.8125 47.625 C-13.7725 47.625 -17.7325 47.625 -21.8125 47.625 C-21.8125 48.615 -21.8125 49.605 -21.8125 50.625 C-20.74128906 50.67398438 -19.67007813 50.72296875 -18.56640625 50.7734375 C-17.16924361 50.84845294 -15.7721095 50.9240013 -14.375 51 C-13.66794922 51.0309375 -12.96089844 51.061875 -12.23242188 51.09375 C-10.42010812 51.19780629 -8.61432012 51.40419892 -6.8125 51.625 C-6.4825 52.285 -6.1525 52.945 -5.8125 53.625 C-6.59625 53.439375 -7.38 53.25375 -8.1875 53.0625 C-12.85183441 52.49956309 -17.17227729 53.02892396 -21.8125 53.625 C-21.8125 54.285 -21.8125 54.945 -21.8125 55.625 C-19.8325 55.625 -17.8525 55.625 -15.8125 55.625 C-16.3075 56.615 -16.3075 56.615 -16.8125 57.625 C-19.375 58.25 -19.375 58.25 -21.8125 58.625 C-21.8125 59.615 -21.8125 60.605 -21.8125 61.625 C-19.8325 61.625 -17.8525 61.625 -15.8125 61.625 C-15.8125 62.615 -15.8125 63.605 -15.8125 64.625 C-17.7925 65.12 -17.7925 65.12 -19.8125 65.625 C-19.24660156 65.81835938 -18.68070313 66.01171875 -18.09765625 66.2109375 C-17.36417969 66.47132812 -16.63070312 66.73171875 -15.875 67 C-15.14410156 67.25523438 -14.41320313 67.51046875 -13.66015625 67.7734375 C-11.8125 68.625 -11.8125 68.625 -10.8125 70.625 C-12.1325 70.625 -13.4525 70.625 -14.8125 70.625 C-14.8125 71.285 -14.8125 71.945 -14.8125 72.625 C-12.1725 73.285 -9.5325 73.945 -6.8125 74.625 C-7.8025 75.285 -8.7925 75.945 -9.8125 76.625 C-7.91494856 78.97473818 -7.91494856 78.97473818 -4.6875 78.75 C-3.73875 78.70875 -2.79 78.6675 -1.8125 78.625 C-2.286875 79.388125 -2.76125 80.15125 -3.25 80.9375 C-5.50588092 84.69444801 -5.50588092 84.69444801 -5.25390625 88.88671875 C-4.81884766 90.08748047 -4.81884766 90.08748047 -4.375 91.3125 C-4.08753906 92.12074219 -3.80007812 92.92898437 -3.50390625 93.76171875 C-3.16166016 94.68404297 -3.16166016 94.68404297 -2.8125 95.625 C-3.4725 95.625 -4.1325 95.625 -4.8125 95.625 C-4.8125 97.605 -4.8125 99.585 -4.8125 101.625 C-6.1325 101.625 -7.4525 101.625 -8.8125 101.625 C-9.039375 100.903125 -9.26625 100.18125 -9.5 99.4375 C-11.08169718 96.04814891 -13.01364502 94.0825312 -15.8125 91.625 C-16.8025 91.295 -17.7925 90.965 -18.8125 90.625 C-19.1425 92.935 -19.4725 95.245 -19.8125 97.625 C-20.4725 97.625 -21.1325 97.625 -21.8125 97.625 C-21.68875 96.820625 -21.565 96.01625 -21.4375 95.1875 C-21.97315704 90.09875808 -24.49126351 86.46341201 -27.8125 82.625 C-29.2975 82.13 -29.2975 82.13 -30.8125 81.625 C-32.1396261 85.6063783 -31.88165913 89.47545227 -31.8125 93.625 C-32.575625 92.820625 -33.33875 92.01625 -34.125 91.1875 C-37.44512457 88.02179983 -39.58206487 87.49007483 -44 87.5625 C-45.258125 87.583125 -46.51625 87.60375 -47.8125 87.625 C-46.68798273 90.5969385 -45.58956209 92.95940687 -43.8125 95.625 C-42.8225 95.625 -41.8325 95.625 -40.8125 95.625 C-40.585625 96.16125 -40.35875 96.6975 -40.125 97.25 C-36.6376883 103.56037355 -32.61160555 107.23982991 -25.8125 109.625 C-22.97559163 109.96512959 -22.97559163 109.96512959 -20.8125 109.625 C-20.8125 110.285 -20.8125 110.945 -20.8125 111.625 C-18.82682292 111.8203125 -16.84114583 112.015625 -14.85546875 112.2109375 C-12.8125 112.625 -12.8125 112.625 -9.8125 114.625 C-7.6854569 114.89941372 -7.6854569 114.89941372 -5.36328125 114.8203125 C-4.51572266 114.81386719 -3.66816406 114.80742188 -2.79492188 114.80078125 C-1.91384766 114.78402344 -1.03277344 114.76726562 -0.125 114.75 C0.76767578 114.74097656 1.66035156 114.73195313 2.58007812 114.72265625 C4.78282314 114.69909748 6.98502588 114.66620329 9.1875 114.625 C9.1875 113.965 9.1875 113.305 9.1875 112.625 C10.280625 112.66625 11.37375 112.7075 12.5 112.75 C16.27642229 112.94574666 16.27642229 112.94574666 19.1875 110.625 C19.1875 109.965 19.1875 109.305 19.1875 108.625 C20.3425 108.728125 21.4975 108.83125 22.6875 108.9375 C28.56927142 108.95839439 32.65776316 105.88063443 36.91796875 102.08203125 C38.40647635 100.69576989 38.40647635 100.69576989 38.1875 98.625 C38.8475 98.625 39.5075 98.625 40.1875 98.625 C40.1875 97.635 40.1875 96.645 40.1875 95.625 C40.765 95.58375 41.3425 95.5425 41.9375 95.5 C45.39677155 94.15472773 46.46884459 91.8076952 48.1875 88.625 C47.8575 87.635 47.5275 86.645 47.1875 85.625 C47.9296875 83.3203125 47.9296875 83.3203125 49.0625 80.75 C53.73270351 70.07058358 54.43300892 54.64478237 50.625 43.5625 C49.86388755 41.89228102 49.04911689 40.24566034 48.1875 38.625 C47.713125 37.6453125 47.23875 36.665625 46.75 35.65625 C39.4940219 21.84198401 28.14293794 14.0982595 13.859375 8.75390625 C9.03231302 7.41817345 4.04430621 7.40732125 -0.9375 7.3125 C-1.60700684 7.29453369 -2.27651367 7.27656738 -2.96630859 7.25805664 C-8.01017872 7.26739023 -11.37783349 8.44222259 -15.8125 10.625 Z " fill="#F9F9FA" transform="translate(60.8125,-0.625)"/>
<path d="M0 0 C14.19 0 28.38 0 43 0 C43 0.66 43 1.32 43 2 C37.39 2 31.78 2 26 2 C26 2.99 26 3.98 26 5 C31.61 5 37.22 5 43 5 C43 5.66 43 6.32 43 7 C37.06 7 31.12 7 25 7 C25 7.99 25 8.98 25 10 C31.27 10 37.54 10 44 10 C44 10.99 44 11.98 44 13 C38.39 13 32.78 13 27 13 C27.33 13.66 27.66 14.32 28 15 C30.54941373 15.31241371 33.00361513 15.51303421 35.5625 15.625 C36.62887695 15.68300781 36.62887695 15.68300781 37.71679688 15.7421875 C39.47742425 15.83671783 41.23867728 15.91945817 43 16 C43 16.66 43 17.32 43 18 C38.71 18 34.42 18 30 18 C30.33 18.66 30.66 19.32 31 20 C34.04581269 20.46954261 34.04581269 20.46954261 37.5625 20.625 C39.35880859 20.73714844 39.35880859 20.73714844 41.19140625 20.8515625 C42.11824219 20.90054688 43.04507813 20.94953125 44 21 C44 21.99 44 22.98 44 24 C39.71 24 35.42 24 31 24 C31 24.99 31 25.98 31 27 C34.96 27 38.92 27 43 27 C43 27.66 43 28.32 43 29 C41.60974609 29.07347656 41.60974609 29.07347656 40.19140625 29.1484375 C38.99386719 29.22320312 37.79632813 29.29796875 36.5625 29.375 C35.36753906 29.44460937 34.17257813 29.51421875 32.94140625 29.5859375 C31.97074219 29.72257812 31.00007813 29.85921875 30 30 C29.67 30.66 29.34 31.32 29 32 C33.95 32 38.9 32 44 32 C43.67 32.99 43.34 33.98 43 35 C40.36 35 37.72 35 35 35 C35 35.99 35 36.98 35 38 C36.98 38 38.96 38 41 38 C41 38.66 41 39.32 41 40 C40.030625 40.12375 39.06125 40.2475 38.0625 40.375 C37.051875 40.58125 36.04125 40.7875 35 41 C34.505 41.99 34.505 41.99 34 43 C35.32 43 36.64 43 38 43 C37.67 43.99 37.34 44.98 37 46 C35.15234375 46.73046875 35.15234375 46.73046875 32.9375 47.1875 C32.20402344 47.34605469 31.47054687 47.50460938 30.71484375 47.66796875 C30.14894531 47.77753906 29.58304688 47.88710937 29 48 C29.99 48.66 30.98 49.32 32 50 C28.69005287 51.65497356 25.00877 51.10084335 21.375 51.0625 C20.57320312 51.05798828 19.77140625 51.05347656 18.9453125 51.04882812 C16.96350994 51.03703168 14.98174567 51.01909605 13 51 C12.67 50.34 12.34 49.68 12 49 C13.485 48.505 13.485 48.505 15 48 C12.36 47.34 9.72 46.68 7 46 C7 45.34 7 44.68 7 44 C8.32 44 9.64 44 11 44 C8.42595029 40.13892543 6.38979741 40.05680308 2 39 C3.98 38.505 3.98 38.505 6 38 C6 37.01 6 36.02 6 35 C4.02 35 2.04 35 0 35 C0 34.01 0 33.02 0 32 C0.804375 31.87625 1.60875 31.7525 2.4375 31.625 C3.283125 31.41875 4.12875 31.2125 5 31 C5.33 30.34 5.66 29.68 6 29 C4.02 29 2.04 29 0 29 C0 28.34 0 27.68 0 27 C1.91583647 26.8041991 3.83272539 26.61867786 5.75 26.4375 C6.81734375 26.33308594 7.8846875 26.22867188 8.984375 26.12109375 C11.64141204 26.01439926 13.49960572 26.18069605 16 27 C15.67 26.34 15.34 25.68 15 25 C12.45058627 24.68758629 9.99638487 24.48696579 7.4375 24.375 C6.72658203 24.33632813 6.01566406 24.29765625 5.28320312 24.2578125 C3.52257575 24.16328217 1.76132272 24.08054183 0 24 C0 23.01 0 22.02 0 21 C3.96 21 7.92 21 12 21 C12 20.01 12 19.02 12 18 C8.04 18 4.08 18 0 18 C0 17.34 0 16.68 0 16 C0.84304687 15.93941406 1.68609375 15.87882812 2.5546875 15.81640625 C3.65039062 15.73261719 4.74609375 15.64882813 5.875 15.5625 C6.96554688 15.48128906 8.05609375 15.40007813 9.1796875 15.31640625 C11.94728971 15.16998297 11.94728971 15.16998297 14 14 C14 14.66 14 15.32 14 16 C15.98 16 17.96 16 20 16 C20 15.01 20 14.02 20 13 C13.4 13 6.8 13 0 13 C0 12.01 0 11.02 0 10 C6.27 9.67 12.54 9.34 19 9 C19.33 8.34 19.66 7.68 20 7 C13.4 7 6.8 7 0 7 C0 6.34 0 5.68 0 5 C0.6612085 4.97494385 1.32241699 4.9498877 2.00366211 4.92407227 C4.98182305 4.80846898 7.9596392 4.68558246 10.9375 4.5625 C12.49887695 4.50352539 12.49887695 4.50352539 14.09179688 4.44335938 C15.57583008 4.38051758 15.57583008 4.38051758 17.08984375 4.31640625 C18.00628662 4.27974854 18.92272949 4.24309082 19.86694336 4.20532227 C21.9820728 4.22996136 21.9820728 4.22996136 23 3 C11.615 2.505 11.615 2.505 0 2 C0 1.34 0 0.68 0 0 Z " fill="#CB7E41" transform="translate(39,26)"/>
<path d="M0 0 C0.70253906 0.0112793 1.40507813 0.02255859 2.12890625 0.03417969 C10.97841616 0.26727676 17.39768584 2.09760137 25.125 6.3125 C23.805 6.9725 22.485 7.6325 21.125 8.3125 C21.125 7.6525 21.125 6.9925 21.125 6.3125 C20.465 6.3125 19.805 6.3125 19.125 6.3125 C19.125 6.9725 19.125 7.6325 19.125 8.3125 C18.465 8.3125 17.805 8.3125 17.125 8.3125 C16.63 7.3225 16.63 7.3225 16.125 6.3125 C15.795 6.9725 15.465 7.6325 15.125 8.3125 C12.5625 8.9375 12.5625 8.9375 10.125 9.3125 C10.455 7.9925 10.785 6.6725 11.125 5.3125 C12.115 5.6425 13.105 5.9725 14.125 6.3125 C13.63 5.3225 13.63 5.3225 13.125 4.3125 C11.475 4.6425 9.825 4.9725 8.125 5.3125 C7.63 4.3225 7.63 4.3225 7.125 3.3125 C6.135 3.3125 5.145 3.3125 4.125 3.3125 C4.785 4.9625 5.445 6.6125 6.125 8.3125 C5.465 8.6425 4.805 8.9725 4.125 9.3125 C5.445 9.3125 6.765 9.3125 8.125 9.3125 C8.125 9.9725 8.125 10.6325 8.125 11.3125 C7.01382813 11.41046875 5.90265625 11.5084375 4.7578125 11.609375 C-10.76042385 13.1107456 -22.03648472 16.9518722 -32.3359375 29.2265625 C-36.89609676 35.40708292 -39.01342046 41.28945363 -38.97265625 48.953125 C-38.96943359 50.02304687 -38.96621094 51.09296875 -38.96289062 52.1953125 C-38.95451172 53.30648437 -38.94613281 54.41765625 -38.9375 55.5625 C-38.93298828 56.68914063 -38.92847656 57.81578125 -38.92382812 58.9765625 C-38.91205397 61.75526217 -38.8956084 64.53385409 -38.875 67.3125 C-41.515 66.3225 -44.155 65.3325 -46.875 64.3125 C-46.56372484 65.89607459 -46.25092711 67.47934993 -45.9375 69.0625 C-45.76347656 69.94421875 -45.58945312 70.8259375 -45.41015625 71.734375 C-44.95131512 73.94485053 -44.44163926 76.12762068 -43.875 78.3125 C-46.875 77.3125 -46.875 77.3125 -48.26171875 74.8203125 C-53.31487303 61.67907645 -54.0567703 47.62888112 -49.1953125 34.234375 C-45.1916949 25.37429817 -39.58083001 17.36068053 -31.875 11.3125 C-30.885 11.3125 -29.895 11.3125 -28.875 11.3125 C-25.875 15.53472222 -25.875 15.53472222 -25.875 18.3125 C-25.215 18.3125 -24.555 18.3125 -23.875 18.3125 C-23.875 17.6525 -23.875 16.9925 -23.875 16.3125 C-23.215 16.3125 -22.555 16.3125 -21.875 16.3125 C-21.545 15.6525 -21.215 14.9925 -20.875 14.3125 C-19.555 14.3125 -18.235 14.3125 -16.875 14.3125 C-16.545 12.6625 -16.215 11.0125 -15.875 9.3125 C-15.215 9.3125 -14.555 9.3125 -13.875 9.3125 C-13.215 9.9725 -12.555 10.6325 -11.875 11.3125 C-10.885 11.3125 -9.895 11.3125 -8.875 11.3125 C-8.545 10.6525 -8.215 9.9925 -7.875 9.3125 C-5.895 9.3125 -3.915 9.3125 -1.875 9.3125 C-1.875 7.3325 -1.875 5.3525 -1.875 3.3125 C-3.195 2.9825 -4.515 2.6525 -5.875 2.3125 C-5.875 4.2925 -5.875 6.2725 -5.875 8.3125 C-8.35 5.8375 -8.35 5.8375 -10.875 3.3125 C-10.875 5.6225 -10.875 7.9325 -10.875 10.3125 C-11.535 9.6525 -12.195 8.9925 -12.875 8.3125 C-12.875 6.9925 -12.875 5.6725 -12.875 4.3125 C-13.535 3.9825 -14.195 3.6525 -14.875 3.3125 C-9.79421984 0.81170042 -5.70330178 -0.15109904 0 0 Z " fill="#483F8F" transform="translate(59.875,6.6875)"/>
<path d="M0 0 C1.34061543 0.30271961 2.67405895 0.63837971 4 1 C4.66 1 5.32 1 6 1 C7.33783393 1.31478446 8.67203709 1.64587656 10 2 C10 2.66 10 3.32 10 4 C9.01 4 8.02 4 7 4 C6.67 4.99 6.34 5.98 6 7 C7.65 6.67 9.3 6.34 11 6 C11.33 5.01 11.66 4.02 12 3 C12.66 3.33 13.32 3.66 14 4 C13.67 4.66 13.34 5.32 13 6 C13.66 6 14.32 6 15 6 C15 5.34 15 4.68 15 4 C15.66 4 16.32 4 17 4 C17 4.66 17 5.32 17 6 C17.71414062 5.60039062 18.42828125 5.20078125 19.1640625 4.7890625 C22 4 22 4 24.6484375 5.2734375 C33.19003835 11.85707827 40.83734978 18.794793 45 29 C45 30.32 45 31.64 45 33 C44.43410156 33.10957031 43.86820312 33.21914063 43.28515625 33.33203125 C42.55167969 33.49058594 41.81820312 33.64914063 41.0625 33.8125 C40.33160156 33.96332031 39.60070312 34.11414062 38.84765625 34.26953125 C38.23792969 34.51058594 37.62820312 34.75164063 37 35 C36.67 35.99 36.34 36.98 36 38 C35.62488281 37.27554688 35.24976563 36.55109375 34.86328125 35.8046875 C30.60287224 27.75605587 26.89190985 21.77185247 19 17 C18.67 17.66 18.34 18.32 18 19 C18 18.34 18 17.68 18 17 C3.81 17 -10.38 17 -25 17 C-25.33 17.66 -25.66 18.32 -26 19 C-26.66 18.34 -27.32 17.68 -28 17 C-17.19245591 10.46616156 -8.54463331 8.57071597 4 9 C2.35 8.34 0.7 7.68 -1 7 C-0.67 6.34 -0.34 5.68 0 5 C-0.32380126 3.66431979 -0.65657551 2.33076989 -1 1 C-0.67 0.67 -0.34 0.34 0 0 Z " fill="#9793BC" transform="translate(64,9)"/>
<path d="M0 0 C4.81387009 2.01606525 6.86046809 5.36005129 9 10 C9.3125 13.5 9.3125 13.5 9 16 C9.66 16 10.32 16 11 16 C11.33 13.69 11.66 11.38 12 9 C16.31320068 10.75722991 19.9031084 13.8062168 22 18 C22.09608608 19.83128771 22.12982579 21.66619959 22.125 23.5 C22.12886719 24.96953125 22.12886719 24.96953125 22.1328125 26.46875 C22 29 22 29 21 31 C13.57142857 31.14285714 13.57142857 31.14285714 10 30 C10 29.34 10 28.68 10 28 C8.845 27.95875 7.69 27.9175 6.5 27.875 C-0.00436615 27.06772051 -4.23100786 22.94589135 -8.5 18.25 C-10 16 -10 16 -10 14 C-10.99 14 -11.98 14 -13 14 C-17 8.74285714 -17 8.74285714 -17 6 C-11.39273577 5.70996909 -7.8758005 5.86555682 -3 9 C-2.01 10.485 -2.01 10.485 -1 12 C-1.020625 10.7625 -1.04125 9.525 -1.0625 8.25 C-1.06766681 5.3359175 -0.93015558 2.79046673 0 0 Z " fill="#CBE2D8" transform="translate(30,81)"/>
<path d="M0 0 C0.66 0 1.32 0 2 0 C3.00496852 3.01490557 3.10335303 5.04181692 3.0625 8.1875 C3.05347656 9.08855469 3.04445313 9.98960938 3.03515625 10.91796875 C3.02355469 11.60503906 3.01195313 12.29210937 3 13 C5.97 13 8.94 13 12 13 C12 13.99 12 14.98 12 16 C11.34 16 10.68 16 10 16 C9.773125 16.5775 9.54625 17.155 9.3125 17.75 C7.05579368 21.6186394 3.23305625 24.54866643 -1 26 C-3.69093775 26.15554553 -6.29979507 26.09000683 -9 26 C-9.33 26.99 -9.66 27.98 -10 29 C-15.625 30.125 -15.625 30.125 -19 29 C-20.06648279 17.89503635 -20.06648279 17.89503635 -17.51171875 13.35546875 C-15.76984128 11.35393252 -14.12390525 9.59052633 -12 8 C-11.34 8 -10.68 8 -10 8 C-9.67 10.31 -9.34 12.62 -9 15 C-8.01 15 -7.02 15 -6 15 C-6.0825 13.96875 -6.165 12.9375 -6.25 11.875 C-5.90708312 6.55978837 -3.69354478 3.69354478 0 0 Z " fill="#B7D8C9" transform="translate(89,82)"/>
<path d="M0 0 C0.99 0.33 1.98 0.66 3 1 C3.33 2.98 3.66 4.96 4 7 C2.02 7.33 0.04 7.66 -2 8 C-1.37351562 8.45890625 -0.74703125 8.9178125 -0.1015625 9.390625 C1.12433594 10.31101562 1.12433594 10.31101562 2.375 11.25 C3.18710937 11.85328125 3.99921875 12.4565625 4.8359375 13.078125 C7.00349332 15.00310237 8.01715819 16.29988513 9 19 C9 19.99 9 20.98 9 22 C9.66 22 10.32 22 11 22 C11 21.34 11 20.68 11 20 C11.66 20 12.32 20 13 20 C12.67 20.99 12.34 21.98 12 23 C12.99 23.66 13.98 24.32 15 25 C11.69005287 26.65497356 8.00877 26.10084335 4.375 26.0625 C3.57320312 26.05798828 2.77140625 26.05347656 1.9453125 26.04882812 C-0.03649006 26.03703168 -2.01825433 26.01909605 -4 26 C-4.33 25.34 -4.66 24.68 -5 24 C-4.01 23.67 -3.02 23.34 -2 23 C-4.64 22.34 -7.28 21.68 -10 21 C-10 20.34 -10 19.68 -10 19 C-8.68 19 -7.36 19 -6 19 C-8.57404971 15.13892543 -10.61020259 15.05680308 -15 14 C-13.68 13.67 -12.36 13.34 -11 13 C-10.67 11.68 -10.34 10.36 -10 9 C-8.35 9 -6.7 9 -5 9 C-5 7.35 -5 5.7 -5 4 C-3.35 4 -1.7 4 0 4 C0 2.68 0 1.36 0 0 Z " fill="#DD4E27" transform="translate(56,51)"/>
<path d="M0 0 C0.70253906 0.0112793 1.40507813 0.02255859 2.12890625 0.03417969 C10.97841616 0.26727676 17.39768584 2.09760137 25.125 6.3125 C23.145 7.3025 23.145 7.3025 21.125 8.3125 C21.125 7.6525 21.125 6.9925 21.125 6.3125 C20.465 6.3125 19.805 6.3125 19.125 6.3125 C19.125 6.9725 19.125 7.6325 19.125 8.3125 C18.465 8.3125 17.805 8.3125 17.125 8.3125 C16.63 7.3225 16.63 7.3225 16.125 6.3125 C15.795 6.9725 15.465 7.6325 15.125 8.3125 C12.5625 8.9375 12.5625 8.9375 10.125 9.3125 C10.455 7.9925 10.785 6.6725 11.125 5.3125 C12.115 5.6425 13.105 5.9725 14.125 6.3125 C13.63 5.3225 13.63 5.3225 13.125 4.3125 C11.475 4.6425 9.825 4.9725 8.125 5.3125 C7.63 4.3225 7.63 4.3225 7.125 3.3125 C6.135 3.3125 5.145 3.3125 4.125 3.3125 C4.785 4.9625 5.445 6.6125 6.125 8.3125 C5.465 8.6425 4.805 8.9725 4.125 9.3125 C5.445 9.3125 6.765 9.3125 8.125 9.3125 C8.125 9.9725 8.125 10.6325 8.125 11.3125 C7.01382813 11.41046875 5.90265625 11.5084375 4.7578125 11.609375 C-7.47368853 12.79413396 -16.55544099 15.43279399 -26.875 22.3125 C-27.865 19.6725 -28.855 17.0325 -29.875 14.3125 C-31.195 14.6425 -32.515 14.9725 -33.875 15.3125 C-33.875 15.9725 -33.875 16.6325 -33.875 17.3125 C-31.4 18.3025 -31.4 18.3025 -28.875 19.3125 C-29.865 19.9725 -30.855 20.6325 -31.875 21.3125 C-33.525 20.3225 -35.175 19.3325 -36.875 18.3125 C-36.875 18.9725 -36.875 19.6325 -36.875 20.3125 C-37.535 20.3125 -38.195 20.3125 -38.875 20.3125 C-37.3172692 16.48897894 -34.95904742 14.02044407 -31.875 11.3125 C-30.885 11.3125 -29.895 11.3125 -28.875 11.3125 C-25.875 15.53472222 -25.875 15.53472222 -25.875 18.3125 C-25.215 18.3125 -24.555 18.3125 -23.875 18.3125 C-23.875 17.6525 -23.875 16.9925 -23.875 16.3125 C-23.215 16.3125 -22.555 16.3125 -21.875 16.3125 C-21.545 15.6525 -21.215 14.9925 -20.875 14.3125 C-19.555 14.3125 -18.235 14.3125 -16.875 14.3125 C-16.545 12.6625 -16.215 11.0125 -15.875 9.3125 C-15.215 9.3125 -14.555 9.3125 -13.875 9.3125 C-13.215 9.9725 -12.555 10.6325 -11.875 11.3125 C-10.885 11.3125 -9.895 11.3125 -8.875 11.3125 C-8.545 10.6525 -8.215 9.9925 -7.875 9.3125 C-5.895 9.3125 -3.915 9.3125 -1.875 9.3125 C-1.875 7.3325 -1.875 5.3525 -1.875 3.3125 C-3.195 2.9825 -4.515 2.6525 -5.875 2.3125 C-5.875 4.2925 -5.875 6.2725 -5.875 8.3125 C-7.525 6.6625 -9.175 5.0125 -10.875 3.3125 C-10.875 5.6225 -10.875 7.9325 -10.875 10.3125 C-11.535 9.6525 -12.195 8.9925 -12.875 8.3125 C-12.875 6.9925 -12.875 5.6725 -12.875 4.3125 C-13.535 3.9825 -14.195 3.6525 -14.875 3.3125 C-9.79421984 0.81170042 -5.70330178 -0.15109904 0 0 Z " fill="#494192" transform="translate(59.875,6.6875)"/>
<path d="M0 0 C0.66 0.33 1.32 0.66 2 1 C2 1.66 2 2.32 2 3 C4.31 3.33 6.62 3.66 9 4 C9.33 3.01 9.66 2.02 10 1 C10.66 1 11.32 1 12 1 C12.46981032 13.74089436 12.84548432 25.30903136 7 37 C6.34 37 5.68 37 5 37 C5.66 32.38 6.32 27.76 7 23 C5.02 23.99 3.04 24.98 1 26 C0.34 26 -0.32 26 -1 26 C-0.83628906 25.04996094 -0.67257813 24.09992188 -0.50390625 23.12109375 C0.16558293 18.43466951 0.10920922 13.78731694 0.0625 9.0625 C0.05798828 8.18787109 0.05347656 7.31324219 0.04882812 6.41210938 C0.03714834 4.27470953 0.01921689 2.13734537 0 0 Z " fill="#433A8F" transform="translate(101,48)"/>
<path d="M0 0 C0.08333357 4.8333472 -0.04738513 9.23692563 -1 14 C-0.34 14.33 0.32 14.66 1 15 C-0.24562244 18.44941598 -1.43517052 21.34356947 -4 24 C-6.48046875 24.171875 -6.48046875 24.171875 -9.1875 23.75 C-10.08855469 23.62109375 -10.98960938 23.4921875 -11.91796875 23.359375 C-12.60503906 23.24078125 -13.29210937 23.1221875 -14 23 C-14 21.68 -14 20.36 -14 19 C-12.73308493 18.32591692 -11.46129251 17.66099503 -10.1875 17 C-9.47980469 16.62875 -8.77210937 16.2575 -8.04296875 15.875 C-6 15 -6 15 -3 15 C-3.33 14.34 -3.66 13.68 -4 13 C-4.55429688 13.28875 -5.10859375 13.5775 -5.6796875 13.875 C-6.40414062 14.24625 -7.12859375 14.6175 -7.875 15 C-8.59429687 15.37125 -9.31359375 15.7425 -10.0546875 16.125 C-12 17 -12 17 -14 17 C-14.50956896 12.82153456 -13.99186859 10.5799104 -11.5625 7.25 C-11.11003906 6.67765625 -10.65757813 6.1053125 -10.19140625 5.515625 C-8.91337754 3.99439433 -8.91337754 3.99439433 -8 2 C-5.09740189 0.6250851 -3.23861295 0 0 0 Z " fill="#DBEAD9" transform="translate(108,71)"/>
<path d="M0 0 C-1.98 0.99 -1.98 0.99 -4 2 C-3.67 3.32 -3.34 4.64 -3 6 C-2.67 4.35 -2.34 2.7 -2 1 C1 2 1 2 2 4 C2.33 2.68 2.66 1.36 3 0 C5.475 0.495 5.475 0.495 8 1 C8.04254356 2.99954746 8.04080783 5.00041636 8 7 C7.67 7.33 7.34 7.66 7 8 C5.63875 7.9690625 5.63875 7.9690625 4.25 7.9375 C0.96628031 8.00064846 -1.05856784 8.61579663 -4 10 C-4.33 9.01 -4.66 8.02 -5 7 C-5.99 7.495 -5.99 7.495 -7 8 C-7.65213292 10.02463255 -7.65213292 10.02463255 -8 12 C-10.31 12.66 -12.62 13.32 -15 14 C-15 14.66 -15 15.32 -15 16 C-15.66 16 -16.32 16 -17 16 C-20 11.61538462 -20 11.61538462 -20 9 C-20.66 8.67 -21.32 8.34 -22 8 C-20.129287 6.86788566 -18.25321809 5.74461905 -16.375 4.625 C-15.33085938 3.99851562 -14.28671875 3.37203125 -13.2109375 2.7265625 C-4.74573864 -1.82528409 -4.74573864 -1.82528409 0 0 Z " fill="#5A539A" transform="translate(51,9)"/>
<path d="M0 0 C14.19 0 28.38 0 43 0 C43 0.66 43 1.32 43 2 C37.39 2 31.78 2 26 2 C26 2.99 26 3.98 26 5 C31.61 5 37.22 5 43 5 C43 5.66 43 6.32 43 7 C37.06 7 31.12 7 25 7 C25 9.97 25 12.94 25 16 C24.34 16 23.68 16 23 16 C22.67 16.66 22.34 17.32 22 18 C22 14.7 22 11.4 22 8 C14.74 7.67 7.48 7.34 0 7 C0 6.34 0 5.68 0 5 C0.6612085 4.97494385 1.32241699 4.9498877 2.00366211 4.92407227 C4.98182305 4.80846898 7.9596392 4.68558246 10.9375 4.5625 C12.49887695 4.50352539 12.49887695 4.50352539 14.09179688 4.44335938 C15.57583008 4.38051758 15.57583008 4.38051758 17.08984375 4.31640625 C18.00628662 4.27974854 18.92272949 4.24309082 19.86694336 4.20532227 C21.9820728 4.22996136 21.9820728 4.22996136 23 3 C11.615 2.505 11.615 2.505 0 2 C0 1.34 0 0.68 0 0 Z " fill="#5A477D" transform="translate(39,26)"/>
<path d="M0 0 C2.64 0 5.28 0 8 0 C8 1.98 8 3.96 8 6 C8.99 6 9.98 6 11 6 C11.33 9.63 11.66 13.26 12 17 C6.39 17 0.78 17 -5 17 C-4.34 13.37 -3.68 9.74 -3 6 C-2.01 6 -1.02 6 0 6 C0 4.02 0 2.04 0 0 Z " fill="#39308C" transform="translate(57,96)"/>
<path d="M0 0 C0.99 0.99 1.98 1.98 3 3 C-10.53 3 -24.06 3 -38 3 C-27.92246424 -7.07753576 -12.07814321 -4.94030755 0 0 Z " fill="#F2F2F7" transform="translate(78,22)"/>
<path d="M0 0 C0.33 0.66 0.66 1.32 1 2 C2.65 2 4.3 2 6 2 C6 2.66 6 3.32 6 4 C4.68 4 3.36 4 2 4 C2.515625 4.70125 3.03125 5.4025 3.5625 6.125 C5.30443767 9.60887535 4.94693195 11.2983569 4 15 C2.35 15 0.7 15 -1 15 C-0.67 16.98 -0.34 18.96 0 21 C-4.29 21 -8.58 21 -13 21 C-13 20.01 -13 19.02 -13 18 C-12.195625 17.87625 -11.39125 17.7525 -10.5625 17.625 C-9.716875 17.41875 -8.87125 17.2125 -8 17 C-7.67 16.34 -7.34 15.68 -7 15 C-8.98 15 -10.96 15 -13 15 C-13 14.34 -13 13.68 -13 13 C-11.08416353 12.8041991 -9.16727461 12.61867786 -7.25 12.4375 C-5.64898437 12.28087891 -5.64898437 12.28087891 -4.015625 12.12109375 C-1.35858796 12.01439926 0.49960572 12.18069605 3 13 C2.67 12.34 2.34 11.68 2 11 C-0.54941373 10.68758629 -3.00361513 10.48696579 -5.5625 10.375 C-6.27341797 10.33632813 -6.98433594 10.29765625 -7.71679688 10.2578125 C-9.47742425 10.16328217 -11.23867728 10.08054183 -13 10 C-13 9.01 -13 8.02 -13 7 C-9.04 7 -5.08 7 -1 7 C-1 6.01 -1 5.02 -1 4 C-4.96 4 -8.92 4 -13 4 C-13 3.34 -13 2.68 -13 2 C-12.14535156 1.93941406 -11.29070313 1.87882812 -10.41015625 1.81640625 C-8.75306641 1.69072266 -8.75306641 1.69072266 -7.0625 1.5625 C-5.96035156 1.48128906 -4.85820313 1.40007813 -3.72265625 1.31640625 C-1.08890097 1.29581916 -1.08890097 1.29581916 0 0 Z " fill="#895C70" transform="translate(52,40)"/>
<path d="M0 0 C2.58949269 1.29474635 2.96035764 2.32663393 4 5 C4.33666969 8.07022662 4.33268574 9.51054181 2.57421875 12.09765625 C1.64029297 13.07025391 1.64029297 13.07025391 0.6875 14.0625 C-1.19701789 16.05763949 -2.95754783 17.93992212 -4.54296875 20.18359375 C-6 22 -6 22 -9 23 C-11.6875 21.5625 -11.6875 21.5625 -14 20 C-13.67 18.68 -13.34 17.36 -13 16 C-10.69 16 -8.38 16 -6 16 C-7.65 14.02 -9.3 12.04 -11 10 C-10.34 8.68 -9.68 7.36 -9 6 C-8.01 6.33 -7.02 6.66 -6 7 C-6 6.34 -6 5.68 -6 5 C-5.401875 5.165 -4.80375 5.33 -4.1875 5.5 C-1.88655664 6.1114124 -1.88655664 6.1114124 1 6 C-0.32 5.34 -1.64 4.68 -3 4 C-3 3.34 -3 2.68 -3 2 C-2.01 2 -1.02 2 0 2 C0 1.34 0 0.68 0 0 Z " fill="#6B65A5" transform="translate(29,20)"/>
<path d="M0 0 C9.86383515 3.40495377 15.84337457 11.52806809 20.8203125 20.30078125 C22 23 22 23 22 27 C21.43410156 27.10957031 20.86820313 27.21914063 20.28515625 27.33203125 C19.55167969 27.49058594 18.81820312 27.64914063 18.0625 27.8125 C17.33160156 27.96332031 16.60070312 28.11414063 15.84765625 28.26953125 C14.93306641 28.63111328 14.93306641 28.63111328 14 29 C13.67 29.99 13.34 30.98 13 32 C12.34 30.02 11.68 28.04 11 26 C11.66 26 12.32 26 13 26 C13 26.66 13 27.32 13 28 C13.61875 27.505 14.2375 27.01 14.875 26.5 C17 25 17 25 19 25 C19 24.01 19 23.02 19 22 C17.35 22 15.7 22 14 22 C14.66 21.01 15.32 20.02 16 19 C15.69159401 16.84725052 15.69159401 16.84725052 15 15 C11.535 16.485 11.535 16.485 8 18 C6.23537317 14.91190305 6 13.76687864 6 10 C6.66 9.01 7.32 8.02 8 7 C5.525 8.485 5.525 8.485 3 10 C3.66 8.02 4.32 6.04 5 4 C3.35 3.67 1.7 3.34 0 3 C0 2.01 0 1.02 0 0 Z " fill="#3A318B" transform="translate(87,15)"/>
<path d="M0 0 C7.65268358 -0.6171519 12.45382141 1.03852287 19 5 C20 6 20 6 20.0625 9.0625 C20.041875 10.031875 20.02125 11.00125 20 12 C14.68202983 12.66474627 11.02868616 12.50774553 6.625 9.25 C3.97886152 7.09388716 1.88854121 4.85019103 0 2 C0 1.34 0 0.68 0 0 Z " fill="#0F9F59" transform="translate(21,96)"/>
<path d="M0 0 C4.28383193 1.97293752 7.84837867 4.69675735 10 9 C10.09608608 10.83128771 10.12982579 12.66619959 10.125 14.5 C10.12757812 15.4796875 10.13015625 16.459375 10.1328125 17.46875 C10 20 10 20 9 22 C7.25 21.875 7.25 21.875 5 21 C1.05662425 15.81727758 -0.13166616 12.2449531 -0.0625 5.8125 C-0.05347656 4.72582031 -0.04445312 3.63914062 -0.03515625 2.51953125 C-0.02355469 1.68808594 -0.01195312 0.85664062 0 0 Z " fill="#11864F" transform="translate(42,90)"/>
<path d="M0 0 C6.47001356 1.02158109 9.47504786 5.47504786 14 10 C14.125 13.625 14.125 13.625 14 17 C13.38125 16.814375 12.7625 16.62875 12.125 16.4375 C9.95839822 15.76313824 9.95839822 15.76313824 8 17 C6.45976004 17.06950541 4.91665012 17.08452357 3.375 17.0625 C2.14910156 17.04896484 2.14910156 17.04896484 0.8984375 17.03515625 C0.27195312 17.02355469 -0.35453125 17.01195313 -1 17 C-1 16.34 -1 15.68 -1 15 C0.32 14.67 1.64 14.34 3 14 C2.2575 12.4840625 2.2575 12.4840625 1.5 10.9375 C-0.11592314 7.22011812 -0.24859797 4.06043343 0 0 Z " fill="#DCECD9" transform="translate(13,71)"/>
<path d="M0 0 C1.21236328 0.01353516 1.21236328 0.01353516 2.44921875 0.02734375 C3.37154297 0.04474609 3.37154297 0.04474609 4.3125 0.0625 C2.71323821 5.65991627 -0.94403803 8.14207662 -5.5625 11.375 C-8.93982863 12.46766514 -12.15198253 12.18035058 -15.6875 12.0625 C-15.92578125 9.765625 -15.92578125 9.765625 -15.6875 7.0625 C-14.04296875 5.296875 -14.04296875 5.296875 -11.875 3.8125 C-11.16730469 3.31234375 -10.45960937 2.8121875 -9.73046875 2.296875 C-6.41489616 0.29358449 -3.78806163 -0.05489944 0 0 Z " fill="#0C9E57" transform="translate(95.6875,95.9375)"/>
<path d="M0 0 C1 3 1 3 0.0703125 5.4140625 C-1.51300056 10.71873909 -1.20924499 15.873154 -1.125 21.375 C-1.11146484 23.05142578 -1.11146484 23.05142578 -1.09765625 24.76171875 C-1.07418346 27.50803462 -1.04134728 30.25390472 -1 33 C-3.64 32.01 -6.28 31.02 -9 30 C-8.68872484 31.58357459 -8.37592711 33.16684993 -8.0625 34.75 C-7.88847656 35.63171875 -7.71445313 36.5134375 -7.53515625 37.421875 C-7.07631512 39.63235053 -6.56663926 41.81512068 -6 44 C-6.99 43.67 -7.98 43.34 -9 43 C-11.99662439 36.77624166 -12.63498398 30.84719713 -13 24 C-10.36 24 -7.72 24 -5 24 C-5 19.38 -5 14.76 -5 10 C-4.34 10 -3.68 10 -3 10 C-3.020625 9.05125 -3.04125 8.1025 -3.0625 7.125 C-3 4 -3 4 -2 2 C-1.34 2 -0.68 2 0 2 C0 1.34 0 0.68 0 0 Z " fill="#382F8B" transform="translate(22,41)"/>
<path d="M0 0 C2.31 0 4.62 0 7 0 C6.125 7.875 6.125 7.875 5 9 C4.95341579 11.16616582 4.96232454 13.33366092 5 15.5 C5.03767546 17.66633908 5.04658421 19.83383418 5 22 C4 23 4 23 0.4375 23.0625 C-0.696875 23.041875 -1.83125 23.02125 -3 23 C-3 20.03 -3 17.06 -3 14 C-2.01 13.67 -1.02 13.34 0 13 C-0.99 12.67 -1.98 12.34 -3 12 C-2.625 10.0625 -2.625 10.0625 -2 8 C-1.34 7.67 -0.68 7.34 0 7 C-0.66 6.67 -1.32 6.34 -2 6 C-2 5.34 -2 4.68 -2 4 C-0.68 4 0.64 4 2 4 C1.34 2.68 0.68 1.36 0 0 Z " fill="#BCB9D3" transform="translate(13,43)"/>
<path d="M0 0 C0.68839211 13.95906226 0.68839211 13.95906226 -1.75 17.75 C-3.79482301 19.79482301 -5.2916953 21.03274832 -8 22 C-9.84728757 20.15271243 -9.38565827 17.42729109 -9.5 14.9375 C-9.48614822 8.64879105 -8.12511829 5.68247401 -3.7265625 1.29296875 C-2 0 -2 0 0 0 Z " fill="#0A824A" transform="translate(79,90)"/>
<path d="M0 0 C0.66 0 1.32 0 2 0 C2.66 0.66 3.32 1.32 4 2 C4.99 2 5.98 2 7 2 C7.33 1.34 7.66 0.68 8 0 C13.28 0 18.56 0 24 0 C24 0.66 24 1.32 24 2 C22.88882813 2.09796875 21.77765625 2.1959375 20.6328125 2.296875 C8.40131147 3.48163396 -0.68044099 6.12029399 -11 13 C-11.99 10.36 -12.98 7.72 -14 5 C-15.32 5.33 -16.64 5.66 -18 6 C-18 6.66 -18 7.32 -18 8 C-15.525 8.99 -15.525 8.99 -13 10 C-13.99 10.66 -14.98 11.32 -16 12 C-17.65 11.01 -19.3 10.02 -21 9 C-21 9.66 -21 10.32 -21 11 C-21.66 11 -22.32 11 -23 11 C-21.4422692 7.17647894 -19.08404742 4.70794407 -16 2 C-15.01 2 -14.02 2 -13 2 C-10 6.22222222 -10 6.22222222 -10 9 C-9.34 9 -8.68 9 -8 9 C-8 8.34 -8 7.68 -8 7 C-7.34 7 -6.68 7 -6 7 C-5.67 6.34 -5.34 5.68 -5 5 C-3.68 5 -2.36 5 -1 5 C-0.67 3.35 -0.34 1.7 0 0 Z " fill="#3B338A" transform="translate(44,16)"/>
<path d="M0 0 C-0.37125 0.9075 -0.7425 1.815 -1.125 2.75 C-2.30359299 5.88097015 -2.30359299 5.88097015 -1.125 8.375 C-0.75375 8.91125 -0.3825 9.4475 0 10 C2.31 9.34 4.62 8.68 7 8 C7 8.99 7 9.98 7 11 C7.66 11.33 8.32 11.66 9 12 C8.34 12.66 7.68 13.32 7 14 C8.32 14.33 9.64 14.66 11 15 C11 15.99 11 16.98 11 18 C7.66666667 21 7.66666667 21 5 21 C5 20.34 5 19.68 5 19 C4.01 19 3.02 19 2 19 C-1.62543101 15.6090496 -4.24902213 11.6140682 -5.0625 6.6875 C-5 3 -5 3 -3.6875 1 C-2 0 -2 0 0 0 Z " fill="#554E98" transform="translate(95,22)"/>
<path d="M0 0 C0.99 0.33 1.98 0.66 3 1 C3.33 2.98 3.66 4.96 4 7 C2.02 7.33 0.04 7.66 -2 8 C-1.06027344 8.68835938 -1.06027344 8.68835938 -0.1015625 9.390625 C0.71570312 10.00421875 1.53296875 10.6178125 2.375 11.25 C3.18710937 11.85328125 3.99921875 12.4565625 4.8359375 13.078125 C7.00349332 15.00310237 8.01715819 16.29988513 9 19 C9 19.99 9 20.98 9 22 C9.66 22 10.32 22 11 22 C11 21.34 11 20.68 11 20 C11.66 20 12.32 20 13 20 C12.3125 21.9375 12.3125 21.9375 11 24 C8.375 24.75 8.375 24.75 6 25 C5.79375 23.741875 5.5875 22.48375 5.375 21.1875 C4.90128618 18.96974791 4.90128618 18.96974791 4 17 C1.06644453 15.19970518 1.06644453 15.19970518 -2 14 C-3.3125 11.875 -3.3125 11.875 -4 10 C-4.33 9.67 -4.66 9.34 -5 9 C-5.04063832 7.33382885 -5.042721 5.66611905 -5 4 C-3.35 4 -1.7 4 0 4 C0 2.68 0 1.36 0 0 Z " fill="#E2692E" transform="translate(56,51)"/>
<path d="M0 0 C0.33 0 0.66 0 1 0 C1 5.28 1 10.56 1 16 C-1.97 16.33 -4.94 16.66 -8 17 C-9.24834144 14.50331711 -8.95155125 13.18670849 -8.625 10.4375 C-8.53476563 9.63183594 -8.44453125 8.82617188 -8.3515625 7.99609375 C-8 6 -8 6 -7 5 C-4.66702567 4.95907063 -2.33294775 4.95758277 0 5 C0 3.35 0 1.7 0 0 Z " fill="#494090" transform="translate(112,49)"/>
<path d="M0 0 C5.53548387 5.10967742 5.53548387 5.10967742 6 9 C5.44140625 11.140625 5.44140625 11.140625 4.5625 13.25 C4.27503906 13.95640625 3.98757812 14.6628125 3.69140625 15.390625 C3.46324219 15.92171875 3.23507813 16.4528125 3 17 C1.68 17 0.36 17 -1 17 C-1.72750788 15.59308393 -2.43140353 14.17393978 -3.125 12.75 C-3.51945312 11.96109375 -3.91390625 11.1721875 -4.3203125 10.359375 C-5 8 -5 8 -4.21875 5.84375 C-2.88782381 3.83029756 -1.49114959 1.89782674 0 0 Z " fill="#383089" transform="translate(60,78)"/>
<path d="M0 0 C5.28 0 10.56 0 16 0 C15.67 0.99 15.34 1.98 15 3 C12.36 3 9.72 3 7 3 C7 3.99 7 4.98 7 6 C8.98 6 10.96 6 13 6 C13 6.66 13 7.32 13 8 C12.030625 8.12375 11.06125 8.2475 10.0625 8.375 C9.051875 8.58125 8.04125 8.7875 7 9 C6.67 9.66 6.34 10.32 6 11 C7.32 11 8.64 11 10 11 C9.67 11.99 9.34 12.98 9 14 C6.69 14.33 4.38 14.66 2 15 C2.70333538 12.02277453 3.58248537 9.14743457 4.5625 6.25 C4.96662109 5.05117188 4.96662109 5.05117188 5.37890625 3.828125 C5.58386719 3.22484375 5.78882812 2.6215625 6 2 C5.67 1.67 5.34 1.34 5 1 C4.67 2.65 4.34 4.3 4 6 C2.35 5.67 0.7 5.34 -1 5 C-0.67 3.35 -0.34 1.7 0 0 Z " fill="#87526F" transform="translate(67,58)"/>
<path d="M0 0 C1.34061543 0.30271961 2.67405895 0.63837971 4 1 C4.66 1 5.32 1 6 1 C7.33783393 1.31478446 8.67203709 1.64587656 10 2 C10 2.66 10 3.32 10 4 C9.01 4 8.02 4 7 4 C6.67 4.99 6.34 5.98 6 7 C7.65 6.67 9.3 6.34 11 6 C11.33 5.01 11.66 4.02 12 3 C12.66 3.33 13.32 3.66 14 4 C13.67 4.66 13.34 5.32 13 6 C13.66 6 14.32 6 15 6 C15.33 5.34 15.66 4.68 16 4 C15.625 6.9375 15.625 6.9375 15 10 C13 11 13 11 12 11 C10.906875 11.04125 9.81375 11.0825 8.6875 11.125 C5.31849796 11.01079654 3.76597433 10.77022357 1 9 C1.99 9 2.98 9 4 9 C1.525 8.01 1.525 8.01 -1 7 C-0.67 6.34 -0.34 5.68 0 5 C-0.32380126 3.66431979 -0.65657551 2.33076989 -1 1 C-0.67 0.67 -0.34 0.34 0 0 Z " fill="#585098" transform="translate(64,9)"/>
<path d="M0 0 C4.25014075 1.51790741 5.95899274 4.06377171 8 8 C8.31827037 10.76497381 8.19294027 13.20236613 8 16 C5.23723823 15.47731534 2.6739124 14.89130413 0 14 C-1.86987216 10.26025568 -1.30641834 5.53209172 -0.5 1.5 C-0.335 1.005 -0.17 0.51 0 0 Z " fill="#80C78A" transform="translate(30,81)"/>
<path d="M0 0 C2.81870287 2.81870287 2.7303841 5.09056945 3 9 C2.0625 11.4375 2.0625 11.4375 1 13 C-5.62611276 11.40059347 -5.62611276 11.40059347 -7.75 9.125 C-8.1625 8.42375 -8.575 7.7225 -9 7 C-8 4 -8 4 -5 2 C-2.3125 1.875 -2.3125 1.875 0 2 C0 1.34 0 0.68 0 0 Z " fill="#665FA0" transform="translate(109,40)"/>
<path d="M0 0 C0.96070434 2.88211302 1.10581883 4.69850044 1.0625 7.6875 C1.05347656 8.49574219 1.04445313 9.30398437 1.03515625 10.13671875 C1.02355469 10.75160156 1.01195313 11.36648437 1 12 C-4.75 15 -4.75 15 -7 15 C-7.48279288 10.17207121 -7.82060585 6.34532299 -4.625 2.4375 C-2 0 -2 0 0 0 Z " fill="#77C482" transform="translate(91,82)"/>
<path d="M0 0 C0.66 1.32 1.32 2.64 2 4 C-0.31 4.33 -2.62 4.66 -5 5 C-5.33 6.65 -5.66 8.3 -6 10 C-6.99 10 -7.98 10 -9 10 C-9.33 13.3 -9.66 16.6 -10 20 C-4.72 20.33 0.56 20.66 6 21 C5.67 19.68 5.34 18.36 5 17 C5.12109375 14.640625 5.12109375 14.640625 5.4375 12.25 C5.53933594 11.45078125 5.64117187 10.6515625 5.74609375 9.828125 C5.82988281 9.22484375 5.91367188 8.6215625 6 8 C6.33 8 6.66 8 7 8 C7.19456705 9.95764383 7.38044247 11.91615321 7.5625 13.875 C7.66691406 14.96554688 7.77132812 16.05609375 7.87890625 17.1796875 C8 20 8 20 7 22 C3.87507749 22.05791844 0.75029234 22.09356746 -2.375 22.125 C-3.26445313 22.14175781 -4.15390625 22.15851563 -5.0703125 22.17578125 C-5.92109375 22.18222656 -6.771875 22.18867187 -7.6484375 22.1953125 C-8.82672119 22.21102295 -8.82672119 22.21102295 -10.02880859 22.22705078 C-12 22 -12 22 -14 20 C-13.34 20 -12.68 20 -12 20 C-11.67 16.37 -11.34 12.74 -11 9 C-9.68 9 -8.36 9 -7 9 C-7 7.02 -7 5.04 -7 3 C-6.34 3 -5.68 3 -5 3 C-4.67 2.34 -4.34 1.68 -4 1 C-4 1.66 -4 2.32 -4 3 C-2.68 3 -1.36 3 0 3 C0 2.01 0 1.02 0 0 Z " fill="#ABB8C6" transform="translate(63,92)"/>
<path d="M0 0 C-3.625 6.875 -3.625 6.875 -7 8 C-9.04296875 7.87890625 -9.04296875 7.87890625 -11.1875 7.5625 C-12.445625 7.376875 -13.70375 7.19125 -15 7 C-15 5.68 -15 4.36 -15 3 C-10.68746741 -1.02503041 -5.51708248 -0.2892451 0 0 Z " fill="#BCDEB9" transform="translate(109,87)"/>
<path d="M0 0 C0.99 0.66 1.98 1.32 3 2 C2.67 2.99 2.34 3.98 2 5 C3.65 5.33 5.3 5.66 7 6 C6.85904936 7.6254308 6.71207913 9.25034051 6.5625 10.875 C6.48128906 11.77992187 6.40007812 12.68484375 6.31640625 13.6171875 C6 16 6 16 5 18 C3.66102417 17.04956626 2.32894573 16.08940853 1 15.125 C0.2575 14.59132813 -0.485 14.05765625 -1.25 13.5078125 C-2.11625 12.76144531 -2.11625 12.76144531 -3 12 C-3 11.34 -3 10.68 -3 10 C-2.34 10 -1.68 10 -1 10 C-0.32326553 6.59679066 -0.32326553 6.59679066 0 3 C-0.66 2.34 -1.32 1.68 -2 1 C-1.34 0.67 -0.68 0.34 0 0 Z " fill="#4F4794" transform="translate(85,13)"/>
<path d="M0 0 C5.53771745 -0.28643366 9.24803827 -0.24524216 14 3 C14.66015625 5.109375 14.66015625 5.109375 15 7 C11.29020487 7.28782893 7.70095835 7.44198495 4 7 C1.3125 4.625 1.3125 4.625 0 2 C0 1.34 0 0.68 0 0 Z " fill="#BADDB8" transform="translate(13,87)"/>
<path d="M0 0 C1.65 0.33 3.3 0.66 5 1 C5.04254356 2.99954746 5.04080783 5.00041636 5 7 C4.67 7.33 4.34 7.66 4 8 C2.63875 7.9690625 2.63875 7.9690625 1.25 7.9375 C-2.03371969 8.00064846 -4.05856784 8.61579663 -7 10 C-7.66 7.69 -8.32 5.38 -9 3 C-8.34 3 -7.68 3 -7 3 C-6.67 3.99 -6.34 4.98 -6 6 C-5.67 4.35 -5.34 2.7 -5 1 C-2 2 -2 2 -1 4 C-0.67 2.68 -0.34 1.36 0 0 Z " fill="#D0CEDE" transform="translate(54,9)"/>
<path d="M0 0 C4.49029962 3.97712252 7.66458483 8.44469327 10 14 C10 15.32 10 16.64 10 18 C9.43410156 18.10957031 8.86820313 18.21914063 8.28515625 18.33203125 C7.55167969 18.49058594 6.81820312 18.64914063 6.0625 18.8125 C5.33160156 18.96332031 4.60070312 19.11414063 3.84765625 19.26953125 C3.23792969 19.51058594 2.62820312 19.75164063 2 20 C1.67 20.99 1.34 21.98 1 23 C0.34 21.02 -0.32 19.04 -1 17 C-0.34 17 0.32 17 1 17 C1 17.66 1 18.32 1 19 C1.61875 18.505 2.2375 18.01 2.875 17.5 C5 16 5 16 7 16 C7 15.01 7 14.02 7 13 C5.35 13 3.7 13 2 13 C2.66 12.01 3.32 11.02 4 10 C3.34 8.906875 2.68 7.81375 2 6.6875 C0.41535071 4.06292462 0 3.1743622 0 0 Z " fill="#514896" transform="translate(99,24)"/>
<path d="M0 0 C0.33 0 0.66 0 1 0 C1.02685938 2.14576637 1.04633088 4.29162645 1.0625 6.4375 C1.07410156 7.63246094 1.08570313 8.82742187 1.09765625 10.05859375 C1 13 1 13 0 14 C-2.33297433 14.04092937 -4.66705225 14.04241723 -7 14 C-7 11.03 -7 8.06 -7 5 C-3.535 4.505 -3.535 4.505 0 4 C0 2.68 0 1.36 0 0 Z " fill="#8A84B6" transform="translate(17,52)"/>
<path d="M0 0 C0.33 0.99 0.66 1.98 1 3 C4.96 3 8.92 3 13 3 C13 3.66 13 4.32 13 5 C12.08476563 5.02578125 11.16953125 5.0515625 10.2265625 5.078125 C8.44378906 5.16320313 8.44378906 5.16320313 6.625 5.25 C5.44164063 5.29640625 4.25828125 5.3428125 3.0390625 5.390625 C-0.06902044 5.66535145 -0.06902044 5.66535145 -1.4140625 7.859375 C-2.13200543 10.11236504 -2.13200543 10.11236504 -2 13 C-0.68 13.33 0.64 13.66 2 14 C2.33 12.35 2.66 10.7 3 9 C3.66 9.33 4.32 9.66 5 10 C4.3125 12.4375 4.3125 12.4375 3 15 C0.5625 16 0.5625 16 -2 16 C-3.875 14.875 -3.875 14.875 -5 13 C-4.86476467 8.26676347 -2.18488169 4.0953829 0 0 Z " fill="#A14F50" transform="translate(69,50)"/>
<path d="M0 0 C1.32 0 2.64 0 4 0 C5.35439668 2.70879335 5.06501451 5.00933268 5 8 C9.455 7.505 9.455 7.505 14 7 C12 9 12 9 8.0859375 9.1953125 C6.51550649 9.18200376 4.94513779 9.15813602 3.375 9.125 C2.57320312 9.11597656 1.77140625 9.10695313 0.9453125 9.09765625 C-1.03658523 9.07406223 -3.01832981 9.03819065 -5 9 C-5.33 8.34 -5.66 7.68 -6 7 C-4.02 7 -2.04 7 0 7 C0 4.69 0 2.38 0 0 Z " fill="#984761" transform="translate(57,68)"/>
<path d="M0 0 C3.375 0.25 3.375 0.25 7 1 C8.125 2.9375 8.125 2.9375 9 5 C11.53770003 6.28254644 11.53770003 6.28254644 14 7 C14 7.66 14 8.32 14 9 C12.68 8.67 11.36 8.34 10 8 C9.34 9.32 8.68 10.64 8 12 C7.89042969 11.43410156 7.78085937 10.86820313 7.66796875 10.28515625 C7.50941406 9.55167969 7.35085937 8.81820312 7.1875 8.0625 C7.03667969 7.33160156 6.88585938 6.60070312 6.73046875 5.84765625 C6.48941406 5.23792969 6.24835937 4.62820312 6 4 C5.01 3.67 4.02 3.34 3 3 C2.67 3.99 2.34 4.98 2 6 C0.02 6 -1.96 6 -4 6 C-4.33 5.34 -4.66 4.68 -5 4 C-3.68 4 -2.36 4 -1 4 C-0.67 2.68 -0.34 1.36 0 0 Z " fill="#B9794B" transform="translate(46,60)"/>
<path d="M0 0 C0.99 0 1.98 0 3 0 C5 2 5 2 5.125 4.625 C5.08375 5.40875 5.0425 6.1925 5 7 C5.70125 6.54625 6.4025 6.0925 7.125 5.625 C10.02984591 3.98313057 12.8139348 2.96322901 16 2 C16 2.99 16 3.98 16 5 C14.5437455 5.67119549 13.08492133 6.33681807 11.625 7 C10.40683594 7.556875 10.40683594 7.556875 9.1640625 8.125 C7 9 7 9 5 9 C5 10.32 5 11.64 5 13 C7.64 13 10.28 13 13 13 C13 13.33 13 13.66 13 14 C9.7 14 6.4 14 3 14 C2.95101562 13.07316406 2.90203125 12.14632812 2.8515625 11.19140625 C2.77679688 9.99386719 2.70203125 8.79632813 2.625 7.5625 C2.55539063 6.36753906 2.48578125 5.17257813 2.4140625 3.94140625 C2.27742188 2.97074219 2.14078125 2.00007813 2 1 C1.34 0.67 0.68 0.34 0 0 Z " fill="#EAF4EA" transform="translate(89,81)"/>
<path d="M0 0 C6.47914253 1.34472769 6.47914253 1.34472769 8.9375 4.4375 C10 7 10 7 10 10 C10.66 10 11.32 10 12 10 C12 9.34 12 8.68 12 8 C12.66 8 13.32 8 14 8 C13.3125 9.9375 13.3125 9.9375 12 12 C9.375 12.75 9.375 12.75 7 13 C6.79375 11.741875 6.5875 10.48375 6.375 9.1875 C5.49193978 5.51890422 5.27006117 5.17283915 1.875 3 C0.92625 2.67 -0.0225 2.34 -1 2 C-0.67 1.34 -0.34 0.68 0 0 Z " fill="#DB4426" transform="translate(55,63)"/>
<path d="M0 0 C2.64 0 5.28 0 8 0 C8 0.66 8 1.32 8 2 C8.99 2 9.98 2 11 2 C11 2.99 11 3.98 11 5 C10.01 5 9.02 5 8 5 C7.67 5.99 7.34 6.98 7 8 C4.69 8 2.38 8 0 8 C0 7.01 0 6.02 0 5 C0.804375 4.87625 1.60875 4.7525 2.4375 4.625 C3.283125 4.41875 4.12875 4.2125 5 4 C5.33 3.34 5.66 2.68 6 2 C4.02 2 2.04 2 0 2 C0 1.34 0 0.68 0 0 Z " fill="#9C8084" transform="translate(39,53)"/>
<path d="M0 0 C2.64 0 5.28 0 8 0 C8.33 2.31 8.66 4.62 9 7 C5.37 7 1.74 7 -2 7 C-1.34 6.67 -0.68 6.34 0 6 C0 4.02 0 2.04 0 0 Z " fill="#7A7891" transform="translate(57,96)"/>
<path d="M0 0 C5.57142857 5.14285714 5.57142857 5.14285714 6 9 C5.01 9.495 5.01 9.495 4 10 C3.67 9.34 3.34 8.68 3 8 C2.67 8.66 2.34 9.32 2 10 C1.01 9.67 0.02 9.34 -1 9 C-1 8.01 -1 7.02 -1 6 C-1.66 6 -2.32 6 -3 6 C-2.67 7.32 -2.34 8.64 -2 10 C-2.66 10 -3.32 10 -4 10 C-4.8125 8.375 -4.8125 8.375 -5 6 C-3.53181864 3.75390165 -1.84147142 1.97621323 0 0 Z " fill="#3E387B" transform="translate(60,78)"/>
<path d="M0 0 C5.94 0 11.88 0 18 0 C18 0.99 18 1.98 18 3 C12.06 3 6.12 3 0 3 C0 2.01 0 1.02 0 0 Z " fill="#6C64A2" transform="translate(65,36)"/>
<path d="M0 0 C0.66 0 1.32 0 2 0 C2 0.66 2 1.32 2 2 C3.32 2.66 4.64 3.32 6 4 C6 4.99 6 5.98 6 7 C3.69 6.67 1.38 6.34 -1 6 C-0.67 7.98 -0.34 9.96 0 12 C-0.99 12 -1.98 12 -3 12 C-3.94721072 9.39517051 -4.30222393 7.69325299 -3.17578125 5.109375 C-2.17063275 3.37417127 -1.0893855 1.68359577 0 0 Z " fill="#3D348D" transform="translate(17,30)"/>
<path d="M0 0 C0.99 0 1.98 0 3 0 C2.95875 1.19625 2.9175 2.3925 2.875 3.625 C2.86148292 7.42329953 3.57990247 10.44975618 5 14 C6.32 14 7.64 14 9 14 C9.33 14.99 9.66 15.98 10 17 C6.37 17 2.74 17 -1 17 C-1 16.34 -1 15.68 -1 15 C0.32 14.67 1.64 14.34 3 14 C2.2575 12.4840625 2.2575 12.4840625 1.5 10.9375 C-0.11592314 7.22011812 -0.24859797 4.06043343 0 0 Z " fill="#DFE3E5" transform="translate(13,71)"/>
<path d="M0 0 C2.64 0 5.28 0 8 0 C8 1.65 8 3.3 8 5 C5.36 5.33 2.72 5.66 0 6 C0 4.02 0 2.04 0 0 Z " fill="#AFACCA" transform="translate(104,60)"/>
<path d="M0 0 C5.28 0 10.56 0 16 0 C15.67 0.66 15.34 1.32 15 2 C11.7 1.67 8.4 1.34 5 1 C4.67 2.65 4.34 4.3 4 6 C2.35 5.67 0.7 5.34 -1 5 C-0.67 3.35 -0.34 1.7 0 0 Z " fill="#AA9FBD" transform="translate(67,58)"/>
<path d="M0 0 C1.17286908 3.51860723 0.73886114 4.43122749 -0.375 7.875 C-2.23221783 14.20989369 -2.69704084 20.42892025 -3 27 C-3.33 27 -3.66 27 -4 27 C-4.33 21.39 -4.66 15.78 -5 10 C-4.34 10 -3.68 10 -3 10 C-3.020625 9.05125 -3.04125 8.1025 -3.0625 7.125 C-3 4 -3 4 -2 2 C-1.34 2 -0.68 2 0 2 C0 1.34 0 0.68 0 0 Z " fill="#312785" transform="translate(22,41)"/>
<path d="M0 0 C0.99 0 1.98 0 3 0 C3.66 1.98 4.32 3.96 5 6 C3.68 6.33 2.36 6.66 1 7 C1 7.66 1 8.32 1 9 C0.34 9 -0.32 9 -1 9 C-2.4606285 6.35261084 -3 5.10551666 -3 2 C-2.01 2 -1.02 2 0 2 C0 1.34 0 0.68 0 0 Z " fill="#CDCADB" transform="translate(35,16)"/>
<path d="M0 0 C0.33 0 0.66 0 1 0 C1.36256858 1.4562672 1.71479793 2.91511185 2.0625 4.375 C2.35833984 5.59316406 2.35833984 5.59316406 2.66015625 6.8359375 C3 9 3 9 2 11 C4.31 11 6.62 11 9 11 C9 11.33 9 11.66 9 12 C6.69 12 4.38 12 2 12 C2 15.63 2 19.26 2 23 C0.15711212 19.31422423 -0.24701045 18.27877347 -0.1953125 14.453125 C-0.18886719 13.60878906 -0.18242188 12.76445313 -0.17578125 11.89453125 C-0.15902344 11.02183594 -0.14226563 10.14914063 -0.125 9.25 C-0.11597656 8.36183594 -0.10695313 7.47367188 -0.09765625 6.55859375 C-0.07414577 4.37211942 -0.04128499 2.18619906 0 0 Z " fill="#6962A3" transform="translate(8,51)"/>
<path d="M0 0 C1.94268841 2.91403262 3.46395304 5.85808576 5 9 C1.86650268 10.04449911 1.01031744 9.93423645 -2 9 C-2 8.34 -2 7.68 -2 7 C-3.65 7 -5.3 7 -7 7 C-7 6.67 -7 6.34 -7 6 C-5.02 6 -3.04 6 -1 6 C-0.67 4.02 -0.34 2.04 0 0 Z " fill="#A5BBC2" transform="translate(42,102)"/>
<path d="M0 0 C4.29 0 8.58 0 13 0 C13 0.99 13 1.98 13 3 C8.71 3 4.42 3 0 3 C0 2.01 0 1.02 0 0 Z " fill="#6F65A2" transform="translate(70,47)"/>
<path d="M0 0 C1.65 0.33 3.3 0.66 5 1 C5 2.98 5 4.96 5 7 C3.35 7.33 1.7 7.66 0 8 C-1.43088528 5.13822943 -0.59991697 3.06624227 0 0 Z " fill="#BCB9D4" transform="translate(54,9)"/>
<path d="M0 0 C0.99 0.495 0.99 0.495 2 1 C2 1.66 2 2.32 2 3 C4.31 3.33 6.62 3.66 9 4 C9.66 3.01 10.32 2.02 11 1 C11 2.65 11 4.3 11 6 C9.906875 6.12375 8.81375 6.2475 7.6875 6.375 C3.92618198 6.75464801 3.92618198 6.75464801 1 9 C0.67 6.03 0.34 3.06 0 0 Z " fill="#332A86" transform="translate(101,48)"/>
<path d="M0 0 C2.86724686 0.57344937 3.8614515 0.8614515 6 3 C5.625 5.125 5.625 5.125 5 7 C2.13275314 6.42655063 1.1385485 6.1385485 -1 4 C-0.625 1.875 -0.625 1.875 0 0 Z " fill="#BFBBD5" transform="translate(21,28)"/>
<path d="M0 0 C0.66 0 1.32 0 2 0 C2.07120499 3.56024973 2.03671905 6.80538905 1.375 10.3125 C1.189375 11.6428125 1.189375 11.6428125 1 13 C1.66 13.66 2.32 14.32 3 15 C0.69 15 -1.62 15 -4 15 C-3.01 14.67 -2.02 14.34 -1 14 C-1.0309375 12.205625 -1.0309375 12.205625 -1.0625 10.375 C-1.06882571 6.81995131 -0.69888875 3.49444376 0 0 Z " fill="#E3E9E6" transform="translate(106,72)"/>
<path d="M0 0 C2.125 0.375 2.125 0.375 4 1 C3.42655063 3.86724686 3.1385485 4.8614515 1 7 C-0.32 7 -1.64 7 -3 7 C-2.25 2.25 -2.25 2.25 0 0 Z " fill="#BFBCD5" transform="translate(88,18)"/>
<path d="M0 0 C0 0.99 0 1.98 0 3 C-4.62 3 -9.24 3 -14 3 C-9.2903051 -0.1397966 -5.55597581 -1.63411053 0 0 Z " fill="#FEFEFE" transform="translate(112,116)"/>
<path d="M0 0 C0.99 0 1.98 0 3 0 C3 3.63 3 7.26 3 11 C2.01 10.67 1.02 10.34 0 10 C-0.33 9.01 -0.66 8.02 -1 7 C-2.29355827 5.62804426 -3.62298702 4.28817344 -5 3 C-3.68 3.33 -2.36 3.66 -1 4 C-0.67 2.68 -0.34 1.36 0 0 Z " fill="#EDF6ED" transform="translate(27,83)"/>
<path d="M0 0 C2.31 0 4.62 0 7 0 C7 1.65 7 3.3 7 5 C4.69 5 2.38 5 0 5 C0 3.35 0 1.7 0 0 Z " fill="#D0CEDF" transform="translate(10,57)"/>
<path d="M0 0 C1.32 0.33 2.64 0.66 4 1 C3.67 2.65 3.34 4.3 3 6 C1.68 6.33 0.36 6.66 -1 7 C-1.625 5.1875 -1.625 5.1875 -2 3 C-1.34 2.01 -0.68 1.02 0 0 Z " fill="#C5C3D9" transform="translate(82,15)"/>
<path d="M0 0 C0 2.31 0 4.62 0 7 C-1.65 5.35 -3.3 3.7 -5 2 C-5 4.31 -5 6.62 -5 9 C-5.66 8.34 -6.32 7.68 -7 7 C-7 5.68 -7 4.36 -7 3 C-7.66 2.67 -8.32 2.34 -9 2 C-3.375 0 -3.375 0 0 0 Z " fill="#3A3189" transform="translate(54,8)"/>
<path d="M0 0 C0.33 0 0.66 0 1 0 C1.33 6.27 1.66 12.54 2 19 C-0.475 18.01 -0.475 18.01 -3 17 C-2.68289062 16.47921875 -2.36578125 15.9584375 -2.0390625 15.421875 C-0.71079489 12.32591291 -0.57635753 9.60595879 -0.375 6.25 C-0.30023437 5.07953125 -0.22546875 3.9090625 -0.1484375 2.703125 C-0.09945313 1.81109375 -0.05046875 0.9190625 0 0 Z " fill="#60599F" transform="translate(19,55)"/>
<path d="M0 0 C1.98 0 3.96 0 6 0 C6.33 1.65 6.66 3.3 7 5 C4.36 5 1.72 5 -1 5 C-0.67 3.35 -0.34 1.7 0 0 Z " fill="#CCC9DD" transform="translate(105,54)"/>
<path d="M0 0 C0.66 0.33 1.32 0.66 2 1 C2 2.32 2 3.64 2 5 C1.15115234 5.16435547 1.15115234 5.16435547 0.28515625 5.33203125 C-0.44832031 5.49058594 -1.18179688 5.64914063 -1.9375 5.8125 C-2.66839844 5.96332031 -3.39929688 6.11414062 -4.15234375 6.26953125 C-4.76207031 6.51058594 -5.37179688 6.75164063 -6 7 C-6.33 7.99 -6.66 8.98 -7 10 C-7.66 8.02 -8.32 6.04 -9 4 C-8.34 4 -7.68 4 -7 4 C-7 4.66 -7 5.32 -7 6 C-2.85329961 3.62370911 -2.85329961 3.62370911 0 0 Z " fill="#3B328A" transform="translate(107,37)"/>
<path d="M0 0 C0.33 0 0.66 0 1 0 C1.13277344 0.67546875 1.26554688 1.3509375 1.40234375 2.046875 C1.57894531 2.93890625 1.75554688 3.8309375 1.9375 4.75 C2.11152344 5.63171875 2.28554687 6.5134375 2.46484375 7.421875 C2.92368488 9.63235053 3.43336074 11.81512068 4 14 C1 13 1 13 -0.1875 10.875 C-1.15164027 7.46342672 -1.20360084 4.52908126 -1 1 C-0.67 0.67 -0.34 0.34 0 0 Z " fill="#443B8F" transform="translate(12,71)"/>
<path d="M0 0 C0 0.99 0 1.98 0 3 C0.66 3.33 1.32 3.66 2 4 C-1.75 7 -1.75 7 -4 7 C-4 6.34 -4 5.68 -4 5 C-4.66 5 -5.32 5 -6 5 C-6 4.34 -6 3.68 -6 3 C-2.53846154 0 -2.53846154 0 0 0 Z " fill="#D4D2E1" transform="translate(102,30)"/>
<path d="M0 0 C1.98 0.495 1.98 0.495 4 1 C4.33 2.98 4.66 4.96 5 7 C2.5625 6.1875 2.5625 6.1875 0 5 C-0.33 4.01 -0.66 3.02 -1 2 C-0.67 1.34 -0.34 0.68 0 0 Z " fill="#E87826" transform="translate(49,63)"/>
<path d="M0 0 C2.16874252 0.50603992 3.99967627 0.99983813 6 2 C5.67 3.65 5.34 5.3 5 7 C3.02 6.01 1.04 5.02 -1 4 C-0.67 2.68 -0.34 1.36 0 0 Z " fill="#D3D1E0" transform="translate(16,36)"/>
<path d="M0 0 C0 0.66 0 1.32 0 2 C-0.66 2 -1.32 2 -2 2 C-2 2.66 -2 3.32 -2 4 C0.475 4.99 0.475 4.99 3 6 C2.01 6.66 1.02 7.32 0 8 C-1.65 7.01 -3.3 6.02 -5 5 C-5 5.66 -5 6.32 -5 7 C-5.66 7 -6.32 7 -7 7 C-3.86206897 0 -3.86206897 0 0 0 Z " fill="#312884" transform="translate(28,20)"/>
<path d="M0 0 C1.9375 0.3125 1.9375 0.3125 4 1 C4.33 1.99 4.66 2.98 5 4 C7.50447516 5.21869929 7.50447516 5.21869929 10 6 C10 6.66 10 7.32 10 8 C8.68 7.67 7.36 7.34 6 7 C5.34 8.32 4.68 9.64 4 11 C3.54427083 9.01432292 3.08854167 7.02864583 2.6328125 5.04296875 C2.01992277 2.72257026 2.01992277 2.72257026 0 0 Z " fill="#E2A18D" transform="translate(50,61)"/>
<path d="M0 0 C-2.52480693 2.52480693 -4.13823034 2.55738633 -7.625 3.125 C-8.62789063 3.29257813 -9.63078125 3.46015625 -10.6640625 3.6328125 C-11.43492188 3.75398438 -12.20578125 3.87515625 -13 4 C-9.41420832 -0.98892755 -5.61771415 -0.43213186 0 0 Z " fill="#FDFDFD" transform="translate(108,113)"/>
<path d="M0 0 C0.66 1.32 1.32 2.64 2 4 C-0.31 4.33 -2.62 4.66 -5 5 C-5.33 6.65 -5.66 8.3 -6 10 C-6.33 10 -6.66 10 -7 10 C-7 7.69 -7 5.38 -7 3 C-6.34 3 -5.68 3 -5 3 C-4.67 2.34 -4.34 1.68 -4 1 C-4 1.66 -4 2.32 -4 3 C-2.68 3 -1.36 3 0 3 C0 2.01 0 1.02 0 0 Z " fill="#A7A7AC" transform="translate(63,92)"/>
<path d="M0 0 C2.31 0.66 4.62 1.32 7 2 C7.33 3.65 7.66 5.3 8 7 C7.34 7 6.68 7 6 7 C5.34 6.01 4.68 5.02 4 4 C1.44816596 2.79549696 1.44816596 2.79549696 -1 2 C-0.67 1.34 -0.34 0.68 0 0 Z " fill="#BE433A" transform="translate(55,63)"/>
<path d="M0 0 C0.66 0.33 1.32 0.66 2 1 C1.67 1.66 1.34 2.32 1 3 C1.66 3 2.32 3 3 3 C3.33 2.34 3.66 1.68 4 1 C3.625 3.9375 3.625 3.9375 3 7 C2.01 7.495 2.01 7.495 1 8 C0.67 7.34 0.34 6.68 0 6 C-0.99 6.495 -0.99 6.495 -2 7 C-1.125 1.125 -1.125 1.125 0 0 Z " fill="#D7D5E4" transform="translate(76,12)"/>
<path d="M0 0 C1.98 0 3.96 0 6 0 C6.66 1.32 7.32 2.64 8 4 C6.02 4.33 4.04 4.66 2 5 C2 4.01 2 3.02 2 2 C1.34 1.34 0.68 0.68 0 0 Z " fill="#D5CACF" transform="translate(42,66)"/>
<path d="M0 0 C0 1.65 0 3.3 0 5 C-2.38564077 4.42415568 -4.66682784 3.77772405 -7 3 C-7 2.34 -7 1.68 -7 1 C-4.50935112 0.31292445 -2.62113708 0 0 0 Z " fill="#CDCBDD" transform="translate(110,48)"/>
<path d="M0 0 C0 0.99 0 1.98 0 3 C-2.5 4.6875 -2.5 4.6875 -5 6 C-5 5.01 -5 4.02 -5 3 C-5.66 3 -6.32 3 -7 3 C-7 2.34 -7 1.68 -7 1 C-4 0 -4 0 0 0 Z " fill="#D4D2E0" transform="translate(106,37)"/>
<path d="M0 0 C2.0625 0.4375 2.0625 0.4375 4 1 C3.67 2.98 3.34 4.96 3 7 C2.34 7 1.68 7 1 7 C0.34 5.02 -0.32 3.04 -1 1 C-0.67 0.67 -0.34 0.34 0 0 Z " fill="#D2CFE0" transform="translate(40,13)"/>
<path d="M0 0 C2.31 0.33 4.62 0.66 7 1 C7 1.99 7 2.98 7 4 C4.69 4.33 2.38 4.66 0 5 C0 3.35 0 1.7 0 0 Z " fill="#1B1B1B" transform="translate(57,96)"/>
<path d="M0 0 C2.625 0.375 2.625 0.375 5 1 C5 1.99 5 2.98 5 4 C4.34 4 3.68 4 3 4 C3 3.34 3 2.68 3 2 C2.67 2.33 2.34 2.66 2 3 C2 3.66 2 4.32 2 5 C1.01 5.33 0.02 5.66 -1 6 C-1.625 4.125 -1.625 4.125 -2 2 C-1.34 1.34 -0.68 0.68 0 0 Z " fill="#DBD9E6" transform="translate(104,42)"/>
<path d="M0 0 C1.85776765 3.13498292 2.20140476 5.37471432 2 9 C1.34 9 0.68 9 0 9 C-0.33 9.66 -0.66 10.32 -1 11 C-1.0270043 9.54176788 -1.04639787 8.08339325 -1.0625 6.625 C-1.07410156 5.81289063 -1.08570313 5.00078125 -1.09765625 4.1640625 C-1 2 -1 2 0 0 Z " fill="#F1AF28" transform="translate(62,33)"/>
<path d="M0 0 C2.0625 0.4375 2.0625 0.4375 4 1 C4 1.66 4 2.32 4 3 C3.01 3 2.02 3 1 3 C0.67 3.99 0.34 4.98 0 6 C0.99 5.67 1.98 5.34 3 5 C2.67 5.99 2.34 6.98 2 8 C1.01 8 0.02 8 -1 8 C-1.04241723 5.66705225 -1.04092937 3.33297433 -1 1 C-0.67 0.67 -0.34 0.34 0 0 Z " fill="#D5D4E3" transform="translate(70,10)"/>
<path d="M0 0 C0.66 0 1.32 0 2 0 C1.649375 0.928125 1.29875 1.85625 0.9375 2.8125 C-0.32382628 5.9802953 -0.32382628 5.9802953 1 9 C0.34 9 -0.32 9 -1 9 C-1 8.34 -1 7.68 -1 7 C-1.66 7 -2.32 7 -3 7 C-2.25 2.25 -2.25 2.25 0 0 Z " fill="#CAC8DB" transform="translate(93,22)"/>
<path d="M0 0 C2 1 2 1 3.125 4.0625 C3.41375 5.031875 3.7025 6.00125 4 7 C-0.75 5.125 -0.75 5.125 -3 4 C-3 3.34 -3 2.68 -3 2 C-2.01 2 -1.02 2 0 2 C0 1.34 0 0.68 0 0 Z " fill="#CDCADE" transform="translate(29,20)"/>
<path d="M0 0 C0.66 0.99 1.32 1.98 2 3 C-4.75 7 -4.75 7 -7 7 C-7 6.01 -7 5.02 -7 4 C-6.34 4 -5.68 4 -5 4 C-4.67 3.34 -4.34 2.68 -4 2 C-2.68 2 -1.36 2 0 2 C0 1.34 0 0.68 0 0 Z " fill="#463D8F" transform="translate(43,19)"/>
<path d="M0 0 C0.99 0 1.98 0 3 0 C3 2.66666667 3 5.33333333 3 8 C1.68 7.67 0.36 7.34 -1 7 C-0.67 6.34 -0.34 5.68 0 5 C-0.32380126 3.66431979 -0.65657551 2.33076989 -1 1 C-0.67 0.67 -0.34 0.34 0 0 Z " fill="#D6D4E2" transform="translate(64,9)"/>
<path d="M0 0 C2.54938804 1.27469402 2.74579613 2.49159226 4 5 C5.5412312 6.70921589 5.5412312 6.70921589 7 8 C1.25 6.25 1.25 6.25 -1 4 C-0.625 1.875 -0.625 1.875 0 0 Z " fill="#DE5326" transform="translate(52,56)"/>
<path d="M0 0 C2.31 0 4.62 0 7 0 C7 0.66 7 1.32 7 2 C6.34 2 5.68 2 5 2 C5 2.66 5 3.32 5 4 C3.0625 3.6875 3.0625 3.6875 1 3 C0.67 2.01 0.34 1.02 0 0 Z " fill="#D8D7E3" transform="translate(13,43)"/>
<path d="M0 0 C3.63 0 7.26 0 11 0 C11 0.66 11 1.32 11 2 C9.02 2.66 7.04 3.32 5 4 C4.67 3.34 4.34 2.68 4 2 C2.68 1.34 1.36 0.68 0 0 Z " fill="#3D348A" transform="translate(63,8)"/>
<path d="M0 0 C0.99 0.33 1.98 0.66 3 1 C3.33 1.99 3.66 2.98 4 4 C3.34 4.66 2.68 5.32 2 6 C2 5.34 2 4.68 2 4 C0.35 4 -1.3 4 -3 4 C-2.01 2.68 -1.02 1.36 0 0 Z " fill="#463E90" transform="translate(104,33)"/>
<path d="M0 0 C0.99 0 1.98 0 3 0 C3.66 1.98 4.32 3.96 5 6 C4.01 6.33 3.02 6.66 2 7 C0 4 0 4 0 0 Z " fill="#D9D8E5" transform="translate(35,16)"/>
<path d="M0 0 C0 0.66 0 1.32 0 2 C-3.28976808 3.09658936 -4.71303767 2.79953138 -8 2 C-8 1.34 -8 0.68 -8 0 C-4.94736336 -0.98120464 -3.05263664 -0.98120464 0 0 Z " fill="#995E61" transform="translate(54,70)"/>
<path d="M0 0 C2.31 0 4.62 0 7 0 C7 0.99 7 1.98 7 3 C5.02 3 3.04 3 1 3 C0.67 2.01 0.34 1.02 0 0 Z " fill="#ECD8C7" transform="translate(52,39)"/>
<path d="M0 0 C0.66 1.32 1.32 2.64 2 4 C2.61875 3.79375 3.2375 3.5875 3.875 3.375 C4.926875 3.189375 4.926875 3.189375 6 3 C6.66 3.66 7.32 4.32 8 5 C5.69 5 3.38 5 1 5 C0.67 5.66 0.34 6.32 0 7 C-0.93423645 3.98968256 -1.04449911 3.13349732 0 0 Z " fill="#615A9E" transform="translate(12,38)"/>
<path d="M0 0 C0.625 1.8125 0.625 1.8125 1 4 C-1 7 -1 7 -3 8 C-3.33 7.01 -3.66 6.02 -4 5 C-3.34 5 -2.68 5 -2 5 C-2 4.34 -2 3.68 -2 3 C-2.66 2.67 -3.32 2.34 -4 2 C-2.68 1.34 -1.36 0.68 0 0 Z " fill="#564E9A" transform="translate(24,35)"/>
<path d="M0 0 C0.33 0.66 0.66 1.32 1 2 C1.66 2 2.32 2 3 2 C2.67 2.99 2.34 3.98 2 5 C-0.0625 5.6875 -0.0625 5.6875 -2 6 C-2 3 -2 3 0 0 Z " fill="#969DB9" transform="translate(77,106)"/>
<path d="M0 0 C0.66 0.99 1.32 1.98 2 3 C0.35 4.32 -1.3 5.64 -3 7 C-3.33 6.34 -3.66 5.68 -4 5 C-2.68 3.35 -1.36 1.7 0 0 Z " fill="#86C990" transform="translate(88,83)"/>
<path d="M0 0 C1.98 0 3.96 0 6 0 C5.34 0.66 4.68 1.32 4 2 C3.67 2.99 3.34 3.98 3 5 C3 4.34 3 3.68 3 3 C1.68 3 0.36 3 -1 3 C-0.67 2.01 -0.34 1.02 0 0 Z " fill="#EBE6EA" transform="translate(74,66)"/>
<path d="M0 0 C2.625 0.375 2.625 0.375 5 1 C5 1.99 5 2.98 5 4 C2.69 3.34 0.38 2.68 -2 2 C-1.34 1.34 -0.68 0.68 0 0 Z " fill="#FCFDFC" transform="translate(15,112)"/>
<path d="M0 0 C4 1 4 1 4 1 Z " fill="#FFFFFF" transform="translate(88,118)"/>
<path d="" fill="#F7F8FB" transform="translate(0,0)"/>
<path d="M0 0 C2 1 2 1 2 1 Z " fill="#FFFFFE" transform="translate(92,117)"/>
<path d="" fill="#FFFFFF" transform="translate(0,0)"/>
</svg>
